<?xml version="1.0" encoding="UTF-8" standalone="no"?>
<svg
   xmlns:dc="http://purl.org/dc/elements/1.1/"
   xmlns:cc="http://creativecommons.org/ns#"
   xmlns:rdf="http://www.w3.org/1999/02/22-rdf-syntax-ns#"
   xmlns:svg="http://www.w3.org/2000/svg"
   xmlns="http://www.w3.org/2000/svg"
   xml:space="preserve"
   enable-background="new 0 0 89 45.643"
   viewBox="0 0 89 45.643"
   height="45.643px"
   width="89px"
   y="0px"
   x="0px"
   id="Layer_1"
   version="1.1"><metadata
     id="metadata31"><rdf:RDF><cc:Work
         rdf:about=""><dc:format>image/svg+xml</dc:format><dc:type
           rdf:resource="http://purl.org/dc/dcmitype/StillImage" /></cc:Work></rdf:RDF></metadata><defs
     id="defs29" /><g
     id="g3"><path
       id="path5"
       d="M30.755,14.33c0.535,3.016,2.032,5.338,4.508,6.966c2.472,1.631,5.3,2.164,8.48,1.604   c3.328-0.592,5.913-2.086,7.749-4.476c1.832-2.39,2.482-5.125,1.935-8.173c-0.536-3.059-2.071-5.41-4.591-7.057   c-2.545-1.646-5.438-2.176-8.697-1.601c-3.259,0.585-5.781,2.077-7.547,4.481C30.82,8.476,30.201,11.231,30.755,14.33z"
       fill="#F36E21" /><g
       id="g7"><path
         id="path9"
         d="M32.408,25.724c-2.53-1.642-5.423-2.178-8.684-1.601c-3.267,0.571-5.781,2.067-7.55,4.479    c-1.783,2.404-2.389,5.159-1.843,8.257c0.534,3.013,2.032,5.336,4.513,6.97c2.477,1.625,5.297,2.159,8.476,1.596    c3.328-0.592,5.914-2.078,7.753-4.47c1.833-2.401,2.478-5.125,1.935-8.176C36.468,29.716,34.934,27.368,32.408,25.724z"
         fill="#FAA624" /></g><path
       id="path11"
       d="M88.713,23.199c-0.833-4.721-3.212-8.353-7.112-10.901c-3.91-2.539-8.381-3.364-13.429-2.468   c-5.039,0.89-8.926,3.195-11.663,6.915c-2.744,3.728-3.691,7.981-2.84,12.765c0.818,4.667,3.144,8.253,6.969,10.769   c3.815,2.517,8.189,3.347,13.11,2.471c5.141-0.913,9.13-3.213,11.971-6.918C88.552,32.14,89.552,27.928,88.713,23.199z"
       fill="#ED1B31" /><path
       id="path13"
       d="M44.917,29.602c-1.758-2.191-4.437-3.707-7.469-3.906l2.372,13.367l13.141-2.326l-2.372-13.371   C47.814,24.597,45.82,26.935,44.917,29.602z"
       fill="#ED1B31" /><path
       id="path15"
       d="M9.651,37.501c2.019-2.067,3.109-4.551,3.399-7.38l-7.182,1.273c-3.769,0.663-6.467,3.823-5.753,7.836   c0.709,4.006,4.322,6.045,8.087,5.404l7.194-1.276C14.153,40.804,12.257,38.751,9.651,37.501z"
       fill="#FAA624" /><path
       id="path17"
       d="M20.421,9.172l-5.449,0.969l2.342,13.235l5.18-0.92c1.174-0.205,1.967-0.38,2.369-0.518   c0.404-0.145,0.844-0.354,1.308-0.64c0.794-0.478,1.462-1.081,1.992-1.83c0.525-0.73,0.886-1.527,1.084-2.396   c0.196-0.872,0.221-1.747,0.068-2.638c-0.225-1.234-0.737-2.325-1.543-3.265c-0.807-0.94-1.782-1.581-2.925-1.94   C23.703,8.875,22.224,8.857,20.421,9.172z"
       fill="#F36E21" /><polygon
       id="polygon19"
       points="20.593,3.601 21.973,6.064 23.696,5.757 21.232,1.556 19.294,1.896 18.41,6.694 20.146,6.386  " /><polygon
       id="polygon21"
       points="15.234,4.007 15.784,7.151 17.604,6.833 17.049,3.681 18.233,3.474 18,2.123 13.687,2.88 13.921,4.236  " /><polygon
       id="polygon23"
       points="29.404,2.047 30.782,4.51 32.506,4.207 30.04,0 28.106,0.342 27.222,5.141 28.957,4.832  " /><polygon
       id="polygon25"
       points="24.042,2.453 24.592,5.601 26.421,5.279 25.859,2.131 27.049,1.922 26.812,0.571 22.494,1.333 22.738,2.686  " /></g></svg>