<svg id="Layer_1" xmlns="http://www.w3.org/2000/svg" width="20.3" height="20.3" viewBox="0 0 20.3 20.3"><style>.st0{fill:#5b5377}</style><path class="st0" d="M10.1 0C4.5 0 0 4.5 0 10.1s4.5 10.1 10.1 10.1 10.1-4.5 10.1-10.1C20.3 4.5 15.7 0 10.1 0zm0 1.5c4.8 0 8.6 3.9 8.6 8.6 0 4.8-3.9 8.6-8.6 8.6-4.8 0-8.7-3.9-8.7-8.6.1-4.7 4-8.6 8.7-8.6z"/><path class="st0" d="M7.4 14.7c0 .2.1.4.2.5.1.1.3.2.5.2s.4-.1.5-.2l5.1-5.1L8.6 5c-.3-.3-.8-.3-1 0-.2.1-.2.3-.2.5s0 .4.2.5l4.1 4.1-4.1 4.1c-.2.2-.2.3-.2.5z"/></svg>