<svg id="Layer_1" xmlns="http://www.w3.org/2000/svg" width="25" height="25" viewBox="-285 408.9 25 25"><style>.st0{fill:#00a6c9}</style><path class="st0" d="M-272.5 408.9c-6.9 0-12.5 5.6-12.5 12.5s5.6 12.5 12.5 12.5 12.5-5.6 12.5-12.5-5.6-12.5-12.5-12.5m0 24.1c-6.5 0-11.6-5.2-11.6-11.6 0-6.5 5.1-11.6 11.6-11.6 6.4 0 11.6 5.2 11.6 11.6s-5.2 11.6-11.6 11.6"/><path class="st0" d="M-275.8 415.1c-.1.2-.1.5 0 .6l5.6 5.6-5.6 5.5c-.2.2-.2.5 0 .6.1.1.2.1.3.1s.2 0 .3-.1l6.2-6.2-6.1-6.1c-.2-.2-.5-.2-.7 0"/></svg>