<svg id="Layer_1" xmlns="http://www.w3.org/2000/svg" width="30.4" height="30.4" viewBox="0 0 30.4 30.4"><style>.st0{fill:#04a7ca}</style><path class="st0" d="M30.4 15.5v-.3C30.4 7 23.7.2 15.5 0 11.4-.1 7.6 1.4 4.7 4.3 1.7 7.1.1 10.9 0 14.9v.3c0 8.2 6.7 15.1 14.9 15.2 4.1.1 7.9-1.4 10.8-4.3 3-2.8 4.6-6.6 4.7-10.6m-29.3-.3v-.3c.1-3.7 1.6-7.2 4.3-9.9 2.7-2.6 6.3-4 10.1-4 7.6.1 13.9 6.5 13.9 14.1v.3c-.1 3.8-1.6 7.3-4.3 9.9-2.7 2.6-6.3 4-10.1 4-7.7-.1-13.9-6.4-13.9-14.1"/><path class="st0" d="M15.6 22.4l.2-13.1 6.2 6.4c.2.2.6.2.8 0 .2-.2.2-.6 0-.8l-7.4-7.7-.4.4-7.3 7.1c-.1.1-.2.3-.2.4 0 .1 0 .3.2.4.2.2.6.2.8 0l6.4-6.2-.2 13.1c0 .3.2.5.5.5.2.1.4-.2.4-.5"/></svg>