<svg id="Layer_1" xmlns="http://www.w3.org/2000/svg" viewBox="-264 264.3 430.5 32.7"><style>.st0{enable-background:new}.st1{fill:#f3f2f2}</style><g class="st0" id="Deleted_Symbol"><path class="st1" d="M-239 267.7h-1.7v19.4h1.7v2.7h-5.3V265h5.3v2.7zM-227.9 272.4l.1 1.5c.4-.5 1-1 1.6-1.3.6-.3 1.4-.5 2.2-.5.8 0 1.5.2 2.1.5.6.3 1.1.8 1.4 1.5.4-.6 1-1.1 1.6-1.5s1.4-.5 2.3-.5c.6 0 1.2.1 1.8.3s1 .5 1.3.9c.4.4.7.9.9 1.6.2.6.3 1.4.3 2.4v8.4h-3.5v-8.4c0-.4 0-.8-.1-1.1-.1-.3-.2-.5-.4-.7s-.4-.3-.6-.3c-.2-.1-.5-.1-.8-.1-.5 0-1 .1-1.4.4-.4.3-.6.6-.8 1.1v9h-3.5v-8.4c0-.4 0-.8-.1-1.1-.1-.3-.2-.5-.4-.7-.2-.2-.4-.3-.6-.3-.2-.1-.5-.1-.8-.1-.5 0-1 .1-1.3.3-.4.2-.6.5-.9.9v9.3h-3.5v-13.2h3.1zM-210.1 278.9c0-1 .1-1.9.4-2.7.3-.8.7-1.5 1.2-2.1s1.2-1.1 2-1.4c.8-.3 1.7-.5 2.7-.5 1 0 1.9.2 2.7.5.8.3 1.4.8 2 1.4s.9 1.3 1.2 2.1.4 1.7.4 2.7v.3c0 1-.1 1.9-.4 2.7s-.7 1.5-1.2 2.1c-.5.6-1.2 1.1-2 1.4-.8.3-1.7.5-2.7.5-1 0-1.9-.2-2.7-.5-.8-.3-1.4-.8-2-1.4-.5-.6-.9-1.3-1.2-2.1-.3-.8-.4-1.7-.4-2.7v-.3zm3.6.3c0 .5 0 1 .1 1.5s.3.9.5 1.2c.2.3.5.6.8.8.3.2.8.3 1.3.3s.9-.1 1.3-.3c.3-.2.6-.5.8-.8.2-.3.4-.8.5-1.2s.1-1 .1-1.5v-.3c0-.5 0-1-.1-1.5s-.3-.9-.5-1.2-.5-.6-.9-.8-.8-.3-1.3-.3-.9.1-1.3.3-.6.5-.8.8c-.2.4-.4.8-.5 1.2-.1.5-.1 1-.1 1.5v.3zM-183.5 279.2c0 1-.1 1.9-.3 2.7-.2.8-.5 1.5-1 2.1-.4.6-1 1.1-1.6 1.4-.6.3-1.4.5-2.3.5-.8 0-1.4-.1-2-.4s-1-.7-1.4-1.2l-.2 1.4h-3.2v-18.8h3.5v6.7c.4-.5.8-.8 1.4-1.1.5-.2 1.1-.4 1.8-.4.9 0 1.6.2 2.3.5.6.3 1.2.8 1.6 1.4.4.6.8 1.3 1 2.1.2.8.3 1.7.3 2.7v.4zm-3.5-.3c0-.5 0-1-.1-1.5s-.2-.9-.4-1.2c-.2-.4-.4-.6-.8-.8-.3-.2-.7-.3-1.2-.3-.6 0-1.1.1-1.5.4-.4.2-.7.6-.9 1v5.2c.2.4.5.8.9 1 .4.2.9.4 1.5.4.5 0 .9-.1 1.2-.3.3-.2.6-.5.8-.8.2-.3.3-.8.4-1.2s.1-1 .1-1.6v-.3zM-181.3 269c0-.5.2-1 .5-1.3.4-.3.8-.5 1.4-.5.3 0 .6 0 .8.1.2.1.5.2.6.4.2.2.3.4.4.6.1.2.1.5.1.7 0 .3 0 .5-.1.7-.1.2-.2.4-.4.6-.2.2-.4.3-.6.4-.2.1-.5.1-.8.1-.3 0-.6 0-.8-.1-.2-.1-.5-.2-.6-.4-.2-.2-.3-.4-.4-.6-.1-.2-.1-.4-.1-.7zm3.7 16.7h-3.5v-13.2h3.5v13.2zM-171 285.7h-3.5v-18.8h3.5v18.8zM-162 285.9c-1 0-1.9-.2-2.8-.5-.8-.3-1.5-.8-2.1-1.4-.6-.6-1-1.3-1.3-2-.3-.8-.4-1.6-.4-2.5v-.5c0-1 .1-1.9.4-2.8s.7-1.6 1.2-2.2c.5-.6 1.2-1.1 1.9-1.4.8-.3 1.6-.5 2.6-.5s1.8.2 2.5.5 1.3.8 1.8 1.3c.5.6.9 1.2 1.1 2 .2.8.4 1.7.4 2.7v1.5h-8.4l.3 1.2c.2.4.4.6.7.9.3.2.6.4 1 .6.4.1.8.2 1.2.2.6 0 1.2-.1 1.8-.4s1-.6 1.4-1.1l1.7 1.9c-.2.3-.5.6-.8.9-.3.3-.7.5-1.1.8-.4.2-.9.4-1.5.5-.3.2-.9.3-1.6.3zm-.4-10.8c-.4 0-.7.1-1 .2-.3.1-.5.3-.7.6s-.4.5-.5.9c-.1.3-.2.7-.3 1.1h4.9v-.3c0-.3-.1-.7-.2-1-.1-.3-.2-.6-.4-.8-.2-.2-.4-.4-.7-.5-.3-.2-.7-.2-1.1-.2zM-145.1 272.4l.1 1.5c.5-.6 1-1 1.6-1.3s1.4-.5 2.1-.5c.6 0 1.2.1 1.7.3.5.2 1 .5 1.3.9.4.4.6.9.8 1.6.2.6.3 1.4.3 2.4v8.4h-3.5v-8.4c0-.4 0-.8-.1-1.1-.1-.3-.2-.5-.4-.7-.2-.2-.4-.3-.7-.3-.3-.1-.6-.1-.9-.1-.5 0-1 .1-1.3.3-.4.2-.7.5-.9.9v9.3h-3.5v-13.2h3.4zM-128.2 285.9c-1 0-1.9-.2-2.8-.5-.8-.3-1.5-.8-2.1-1.4-.6-.6-1-1.3-1.3-2-.3-.8-.4-1.6-.4-2.5v-.5c0-1 .1-1.9.4-2.8s.7-1.6 1.2-2.2c.5-.6 1.2-1.1 1.9-1.4.8-.3 1.6-.5 2.6-.5s1.8.2 2.5.5 1.3.8 1.8 1.3c.5.6.9 1.2 1.1 2 .2.8.4 1.7.4 2.7v1.5h-8.4l.3 1.2c.2.4.4.6.7.9.3.2.6.4 1 .6.4.1.8.2 1.2.2.6 0 1.2-.1 1.8-.4s1-.6 1.4-1.1l1.7 1.9c-.2.3-.5.6-.8.9-.3.3-.7.5-1.1.8-.4.2-.9.4-1.5.5-.4.2-1 .3-1.6.3zm-.4-10.8c-.4 0-.7.1-1 .2-.3.1-.5.3-.7.6s-.4.5-.5.9c-.1.3-.2.7-.3 1.1h4.9v-.3c0-.3-.1-.7-.2-1-.1-.3-.2-.6-.4-.8-.2-.2-.4-.4-.7-.5-.4-.2-.7-.2-1.1-.2zM-116.6 269.2v3.2h2.3v2.6h-2.3v6.6c0 .3 0 .5.1.7.1.2.1.3.3.4.1.1.3.2.4.2.2 0 .4.1.6.1h.6c.2 0 .3 0 .5-.1v2.7c-.3.1-.6.2-1 .2-.3.1-.7.1-1.2.1-.6 0-1.1-.1-1.6-.2s-.9-.4-1.2-.7c-.3-.3-.6-.7-.8-1.2-.2-.5-.3-1.1-.3-1.8v-7h-1.9v-2.6h1.9v-3.2h3.6zM-100.8 280.9l1.7-8.4h3.4l-3.4 13.2h-3l-2.5-8.3-2.5 8.3h-2.9l-3.4-13.2h3.4l1.7 8.4 2.4-8.4h2.6l2.5 8.4zM-94.5 278.9c0-1 .1-1.9.4-2.7.3-.8.7-1.5 1.2-2.1s1.2-1.1 2-1.4c.8-.3 1.7-.5 2.7-.5 1 0 1.9.2 2.7.5.8.3 1.4.8 2 1.4s.9 1.3 1.2 2.1.4 1.7.4 2.7v.3c0 1-.1 1.9-.4 2.7s-.7 1.5-1.2 2.1c-.5.6-1.2 1.1-2 1.4-.8.3-1.7.5-2.7.5-1 0-1.9-.2-2.7-.5-.8-.3-1.4-.8-2-1.4-.5-.6-.9-1.3-1.2-2.1-.3-.8-.4-1.7-.4-2.7v-.3zm3.5.3c0 .5 0 1 .1 1.5s.3.9.5 1.2c.2.3.5.6.8.8.3.2.8.3 1.3.3s.9-.1 1.3-.3c.3-.2.6-.5.8-.8.2-.3.4-.8.5-1.2s.1-1 .1-1.5v-.3c0-.5 0-1-.1-1.5s-.3-.9-.5-1.2-.5-.6-.9-.8-.8-.3-1.3-.3-.9.1-1.3.3-.6.5-.8.8c-.2.4-.4.8-.5 1.2-.1.5-.1 1-.1 1.5v.3zM-72.4 275.8c-.2 0-.4 0-.6-.1s-.5 0-.6 0c-.7 0-1.3.1-1.7.3s-.7.6-.9 1v8.6h-3.5v-13.2h3.3l.1 1.6c.3-.6.7-1 1.2-1.3.5-.3 1.1-.5 1.7-.5h.6c.2 0 .4.1.5.1l-.1 3.5zM-65.9 280.4l-1.3 1.3v4h-3.5v-18.8h3.5v10.4l.7-.9 3.4-4h4.2l-4.8 5.5 5.2 7.7h-4.1l-3.3-5.2zM-47.4 285.7h-3.5v-18.8h3.5v18.8zM-45 278.9c0-1 .1-1.9.4-2.7.3-.8.7-1.5 1.2-2.1s1.2-1.1 2-1.4 1.7-.5 2.7-.5c1 0 1.9.2 2.7.5s1.4.8 2 1.4c.5.6.9 1.3 1.2 2.1.3.8.4 1.7.4 2.7v.3c0 1-.1 1.9-.4 2.7-.3.8-.7 1.5-1.2 2.1-.5.6-1.2 1.1-2 1.4s-1.7.5-2.7.5-1.9-.2-2.7-.5-1.4-.8-2-1.4c-.5-.6-.9-1.3-1.2-2.1-.3-.8-.4-1.7-.4-2.7v-.3zm3.5.3c0 .5 0 1 .1 1.5s.3.9.5 1.2c.2.3.5.6.8.8.3.2.8.3 1.3.3s.9-.1 1.3-.3c.3-.2.6-.5.8-.8.2-.3.4-.8.5-1.2s.1-1 .1-1.5v-.3c0-.5 0-1-.1-1.5s-.3-.9-.5-1.2-.5-.6-.9-.8c-.3-.2-.8-.3-1.3-.3s-.9.1-1.3.3c-.3.2-.6.5-.8.8s-.4.8-.5 1.2c-.1.5-.1 1-.1 1.5v.3zM-30.9 279c0-1 .1-1.9.4-2.7.2-.8.6-1.5 1.1-2.1.5-.6 1-1.1 1.7-1.4s1.4-.5 2.2-.5c.8 0 1.4.1 2 .4.5.3 1 .6 1.4 1.1l.1-1.2h3.2v12.8c0 .9-.2 1.7-.5 2.4s-.7 1.3-1.3 1.8c-.6.5-1.2.9-2 1.1s-1.6.4-2.6.4c-.4 0-.8 0-1.3-.1s-.9-.2-1.3-.4-.9-.4-1.3-.6c-.4-.3-.7-.6-1-.9l1.6-2.1c.4.5.9.8 1.4 1.1s1.1.4 1.8.4c.9 0 1.7-.2 2.2-.8.5-.5.8-1.2.8-2.1v-.7c-.4.4-.9.8-1.4 1s-1.1.4-1.8.4c-.8 0-1.6-.2-2.2-.5s-1.2-.8-1.7-1.4c-.5-.6-.8-1.3-1.1-2.1-.2-.8-.4-1.7-.4-2.7v-.6zm3.6.2c0 .5.1 1 .2 1.5s.3.9.5 1.2c.2.3.5.6.8.8.3.2.7.3 1.2.3.6 0 1-.1 1.4-.3.4-.2.7-.5.9-.9v-5.6c-.2-.4-.5-.7-.9-.9s-.8-.3-1.4-.3c-.5 0-.9.1-1.2.3-.3.2-.6.5-.8.8-.2.4-.4.8-.5 1.2-.1.5-.2 1-.2 1.5v.4zM-16.6 278.9c0-1 .1-1.9.4-2.7.3-.8.7-1.5 1.2-2.1s1.2-1.1 2-1.4 1.7-.5 2.7-.5c1 0 1.9.2 2.7.5s1.4.8 2 1.4c.5.6.9 1.3 1.2 2.1.3.8.4 1.7.4 2.7v.3c0 1-.1 1.9-.4 2.7-.3.8-.7 1.5-1.2 2.1-.5.6-1.2 1.1-2 1.4s-1.7.5-2.7.5-1.9-.2-2.7-.5-1.4-.8-2-1.4c-.5-.6-.9-1.3-1.2-2.1-.3-.8-.4-1.7-.4-2.7v-.3zm3.5.3c0 .5 0 1 .1 1.5s.3.9.5 1.2c.2.3.5.6.8.8.3.2.8.3 1.3.3s.9-.1 1.3-.3c.3-.2.6-.5.8-.8.2-.3.4-.8.5-1.2s.1-1 .1-1.5v-.3c0-.5 0-1-.1-1.5s-.3-.9-.5-1.2-.5-.6-.9-.8c-.3-.2-.8-.3-1.3-.3s-.9.1-1.3.3c-.3.2-.6.5-.8.8s-.4.8-.5 1.2c-.1.5-.1 1-.1 1.5v.3zM16.2 279.2c0 1-.1 1.9-.3 2.7-.2.8-.6 1.5-1 2.1-.4.6-1 1.1-1.6 1.4s-1.4.5-2.2.5c-.7 0-1.3-.1-1.8-.4s-1-.6-1.4-1v6.2H4.3v-18.3h3.3l.1 1.3c.4-.5.9-.9 1.4-1.1s1.2-.4 1.9-.4c.8 0 1.6.2 2.2.5.6.3 1.2.8 1.6 1.4s.8 1.3 1 2.1c.2.8.3 1.7.3 2.7v.3zm-3.5-.3c0-.5 0-1.1-.1-1.5-.1-.5-.2-.9-.4-1.2-.2-.3-.5-.6-.8-.8-.3-.2-.7-.3-1.2-.3-.6 0-1.1.1-1.4.3-.4.2-.7.5-.9.9v5.4c.2.4.5.7.9 1 .4.2.9.3 1.4.3.5 0 .9-.1 1.2-.3.3-.2.6-.5.8-.8.2-.4.3-.8.4-1.2.1-.5.1-1 .1-1.5v-.3zM22.1 285.7h-3.5v-18.8h3.5v18.8zM32.7 285.7c-.2-.3-.3-.7-.4-1.2-.4.4-.8.7-1.3 1s-1.2.4-2 .4c-.6 0-1.2-.1-1.8-.3s-1-.5-1.4-.8c-.4-.3-.7-.8-.9-1.3-.2-.5-.3-1-.3-1.6 0-.7.1-1.3.4-1.8.3-.5.6-1 1.2-1.4.5-.4 1.1-.7 1.9-.9.8-.2 1.6-.3 2.7-.3h1.6v-.8c0-.6-.2-1.1-.5-1.5s-.8-.5-1.5-.5c-.6 0-1.1.1-1.4.4-.3.3-.5.7-.5 1.2H25c0-.6.1-1.1.4-1.6.3-.5.6-1 1.1-1.3.5-.4 1.1-.7 1.8-.9.7-.2 1.5-.3 2.3-.3.8 0 1.5.1 2.1.3s1.2.5 1.7.9.8.9 1.1 1.5c.3.6.4 1.3.4 2v6.6c0 .3.1.6.1.8 0 .2.1.5.2.6.1.2.1.4.2.5v.2h-3.7zm-3-2.5c.3 0 .6 0 .8-.1.3-.1.5-.2.7-.3.2-.1.4-.3.5-.4.2-.2.3-.3.4-.5v-2.3h-1.5c-.5 0-.9.1-1.2.2-.3.1-.6.2-.8.4s-.4.4-.5.6c-.1.2-.2.5-.2.8 0 .4.2.8.5 1.1.4.4.8.5 1.3.5zM43.9 283.1c.3 0 .6 0 .9-.1s.5-.2.7-.4c.2-.2.3-.4.5-.6.1-.2.2-.5.2-.8h3.3c0 .7-.2 1.3-.4 1.9-.3.6-.7 1.1-1.2 1.5-.5.4-1.1.8-1.7 1-.7.2-1.4.4-2.1.4-1 0-1.9-.2-2.7-.5-.8-.3-1.4-.8-1.9-1.4-.5-.6-.9-1.3-1.1-2.1-.3-.8-.4-1.7-.4-2.6v-.3c0-.9.1-1.8.4-2.6.3-.8.6-1.5 1.1-2.1.5-.6 1.1-1.1 1.9-1.4.8-.3 1.7-.5 2.7-.5.8 0 1.6.1 2.2.4.7.2 1.2.6 1.7 1s.9 1 1.1 1.6c.3.6.4 1.4.4 2.1h-3.3c0-.3-.1-.6-.2-.9s-.2-.5-.4-.7-.4-.4-.7-.5c-.3-.1-.6-.2-1-.2-.5 0-.9.1-1.3.3-.3.2-.6.5-.8.8-.2.4-.3.8-.4 1.2-.1.5-.1.9-.1 1.4v.3c0 .5 0 1 .1 1.5s.2.9.4 1.2c.2.3.4.6.8.8.4.2.8.3 1.3.3zM57.5 285.9c-1 0-1.9-.2-2.8-.5-.8-.3-1.5-.8-2.1-1.4-.6-.6-1-1.3-1.3-2-.3-.8-.4-1.6-.4-2.5v-.5c0-1 .1-1.9.4-2.8s.7-1.6 1.2-2.2c.5-.6 1.2-1.1 1.9-1.4.8-.3 1.6-.5 2.6-.5s1.8.2 2.5.5 1.3.8 1.8 1.3.9 1.2 1.1 2c.2.8.4 1.7.4 2.7v1.5h-8.4l.3 1.2c.2.4.4.6.7.9.3.2.6.4 1 .6.4.1.8.2 1.2.2.6 0 1.2-.1 1.8-.4.5-.2 1-.6 1.4-1.1l1.7 1.9c-.2.3-.5.6-.8.9-.3.3-.7.5-1.1.8-.4.2-.9.4-1.5.5-.3.2-.9.3-1.6.3zm-.4-10.8c-.4 0-.7.1-1 .2-.3.1-.5.3-.7.6-.2.2-.4.5-.5.9-.1.3-.2.7-.3 1.1h4.9v-.3c0-.3-.1-.7-.2-1s-.2-.6-.4-.8-.4-.4-.7-.5-.7-.2-1.1-.2zM68.4 273.9c.4-.5 1-.9 1.5-1.2.6-.3 1.3-.4 2-.4s1.2.1 1.8.3c.5.2 1 .5 1.4.9s.7.9.9 1.6c.2.7.3 1.4.3 2.4v8.3h-3.5v-8.4c0-.4 0-.8-.1-1.1-.1-.3-.2-.5-.4-.7-.2-.2-.4-.3-.7-.4s-.6-.1-.9-.1c-.6 0-1 .1-1.4.3s-.7.5-.9.9v9.4h-3.5v-18.8h3.5v7zM78.4 278.9c0-1 .1-1.9.4-2.7.3-.8.7-1.5 1.2-2.1s1.2-1.1 2-1.4 1.7-.5 2.7-.5c1 0 1.9.2 2.7.5s1.4.8 2 1.4c.5.6.9 1.3 1.2 2.1.3.8.4 1.7.4 2.7v.3c0 1-.1 1.9-.4 2.7-.3.8-.7 1.5-1.2 2.1-.5.6-1.2 1.1-2 1.4s-1.7.5-2.7.5-1.9-.2-2.7-.5-1.4-.8-2-1.4c-.5-.6-.9-1.3-1.2-2.1-.3-.8-.4-1.7-.4-2.7v-.3zm3.5.3c0 .5 0 1 .1 1.5s.3.9.5 1.2c.2.3.5.6.8.8.3.2.8.3 1.3.3s.9-.1 1.3-.3c.3-.2.6-.5.8-.8.2-.3.4-.8.5-1.2s.1-1 .1-1.5v-.3c0-.5 0-1-.1-1.5s-.3-.9-.5-1.2-.5-.6-.9-.8c-.3-.2-.8-.3-1.3-.3s-.9.1-1.3.3c-.3.2-.6.5-.8.8s-.4.8-.5 1.2c-.1.5-.1 1-.1 1.5v.3zM96.8 285.7h-3.5v-18.8h3.5v18.8zM99.2 279c0-1 .1-1.9.3-2.7.2-.8.6-1.5 1-2.1.4-.6 1-1.1 1.6-1.4.6-.3 1.4-.5 2.2-.5.7 0 1.3.1 1.8.4.5.3 1 .6 1.4 1.1v-6.7h3.5v18.8h-3.2l-.2-1.4c-.4.5-.9.9-1.5 1.2s-1.2.4-1.9.4c-.8 0-1.5-.2-2.2-.5-.6-.3-1.2-.8-1.6-1.4-.4-.6-.8-1.3-1-2.1-.2-.8-.3-1.7-.3-2.7v-.4zm3.5.2c0 .5 0 1 .1 1.5s.2.9.4 1.2c.2.3.5.6.8.8s.7.3 1.2.3c.6 0 1-.1 1.4-.4.4-.2.7-.6.9-1v-5.2c-.2-.4-.5-.8-.9-1-.4-.2-.8-.4-1.4-.4-.5 0-.9.1-1.2.3-.3.2-.6.5-.8.8-.2.4-.3.8-.4 1.2s-.1 1-.1 1.5v.4zM119.9 285.9c-1 0-1.9-.2-2.8-.5-.8-.3-1.5-.8-2.1-1.4-.6-.6-1-1.3-1.3-2-.3-.8-.4-1.6-.4-2.5v-.5c0-1 .1-1.9.4-2.8s.7-1.6 1.2-2.2c.5-.6 1.2-1.1 1.9-1.4.8-.3 1.6-.5 2.6-.5s1.8.2 2.5.5 1.3.8 1.8 1.3.9 1.2 1.1 2c.2.8.4 1.7.4 2.7v1.5h-8.4l.3 1.2c.2.4.4.6.7.9.3.2.6.4 1 .6.4.1.8.2 1.2.2.6 0 1.2-.1 1.8-.4.5-.2 1-.6 1.4-1.1l1.7 1.9c-.2.3-.5.6-.8.9-.3.3-.7.5-1.1.8-.4.2-.9.4-1.5.5-.4.2-1 .3-1.6.3zm-.4-10.8c-.4 0-.7.1-1 .2-.3.1-.5.3-.7.6-.2.2-.4.5-.5.9-.1.3-.2.7-.3 1.1h4.9v-.3c0-.3-.1-.7-.2-1s-.2-.6-.4-.8-.4-.4-.7-.5-.7-.2-1.1-.2zM134.8 275.8c-.2 0-.4 0-.6-.1h-.6c-.7 0-1.3.1-1.7.3-.4.2-.7.6-.9 1v8.6h-3.5v-13.2h3.3l.1 1.6c.3-.6.7-1 1.2-1.3.5-.3 1.1-.5 1.7-.5h.6c.2 0 .4.1.5.1l-.1 3.5zM141.5 265h5.3v24.8h-5.3v-2.7h1.7v-19.4h-1.7V265z"/></g></svg>