<?xml version="1.0" standalone="no"?>
<!DOCTYPE svg PUBLIC "-//W3C//DTD SVG 20010904//EN"
 "http://www.w3.org/TR/2001/REC-SVG-20010904/DTD/svg10.dtd">
<svg version="1.0" xmlns="http://www.w3.org/2000/svg"
 width="900.000000pt" height="506.000000pt" viewBox="0 0 900.000000 506.000000"
 preserveAspectRatio="xMidYMid meet">
<metadata>
Created by potrace 1.14, written by Peter Selinger 2001-2017
</metadata>
<g transform="translate(0.000000,506.000000) scale(0.100000,-0.100000)"
fill="#000000" stroke="none">
<path d="M2120 4053 l0 -30 86 -7 c140 -10 238 -74 290 -188 59 -131 41 -321
-53 -568 -121 -317 -389 -729 -727 -1115 -305 -348 -622 -594 -871 -676 -54
-18 -93 -24 -170 -24 -89 0 -107 3 -160 28 -81 38 -150 107 -176 177 -94 245
21 670 308 1144 96 158 288 416 310 416 24 0 13 -20 -74 -132 -48 -62 -119
-162 -158 -223 -67 -102 -175 -293 -175 -308 0 -4 236 -7 525 -7 l525 0 0 675
0 675 -675 0 -675 0 -2 -675 -3 -675 93 0 c92 0 93 0 86 -22 -3 -13 -10 -27
-14 -33 -11 -15 -69 -170 -90 -240 -55 -183 -63 -236 -64 -405 -1 -180 8 -224
65 -325 88 -157 281 -225 525 -185 197 32 442 162 688 365 132 109 362 343
480 488 286 354 487 698 579 997 45 145 59 236 60 375 1 199 -32 303 -129 405
-86 91 -141 113 -286 118 l-118 4 0 -29z"/>
<path d="M4024 3208 c-14 -29 -28 -55 -30 -56 -1 -2 -24 11 -50 28 -87 60
-197 80 -313 56 -88 -19 -143 -45 -194 -94 -62 -59 -89 -123 -95 -222 -8 -149
35 -244 147 -319 65 -44 227 -141 236 -141 9 0 86 -51 133 -88 42 -33 82 -99
96 -155 11 -45 -19 -132 -62 -179 -43 -48 -126 -88 -182 -88 -22 0 -65 10 -96
21 -125 47 -215 179 -233 342 -1 4 -17 7 -36 7 l-36 0 3 -232 c3 -232 3 -233
25 -236 18 -3 28 8 52 57 17 33 35 62 40 66 6 3 34 -10 63 -29 86 -57 138 -71
263 -70 97 0 117 3 167 26 32 15 73 39 93 55 146 115 180 379 67 528 -44 58
-244 194 -362 247 -52 23 -148 99 -167 134 -53 93 -8 220 97 274 54 27 95 33
154 20 98 -20 182 -120 216 -257 10 -40 13 -43 46 -43 l34 0 -2 198 c-3 194
-3 197 -25 200 -18 3 -27 -7 -49 -50z"/>
<path d="M4428 3230 c-37 -28 -51 -72 -46 -135 5 -63 31 -98 84 -115 46 -16
107 2 133 39 47 66 31 185 -29 216 -42 22 -112 19 -142 -5z"/>
<path d="M8665 3239 c-33 -10 -163 -34 -237 -44 -42 -5 -48 -9 -48 -31 0 -20
5 -24 29 -24 52 0 89 -19 101 -53 15 -44 13 -1069 -2 -1103 -11 -24 -18 -27
-90 -39 -31 -5 -38 -10 -38 -29 l0 -23 245 0 245 0 0 23 c0 20 -6 24 -49 30
-28 3 -59 15 -70 26 -21 19 -21 26 -21 648 0 701 6 641 -65 619z"/>
<path d="M6655 3218 c-6 -16 -55 -307 -55 -325 0 -8 12 -13 34 -13 32 0 34 3
45 46 26 103 95 195 159 211 14 3 54 7 87 7 l60 1 0 -550 c0 -302 -4 -563 -8
-578 -9 -33 -57 -57 -112 -57 -34 0 -35 -1 -35 -38 l0 -38 83 9 c71 7 397 4
438 -5 10 -2 14 7 14 32 0 35 0 35 -55 42 -40 6 -61 15 -77 34 l-23 25 0 566
0 566 74 -6 c81 -6 117 -20 158 -64 29 -30 71 -117 83 -170 6 -29 10 -33 41
-33 19 0 34 3 34 8 0 4 -13 81 -29 172 l-28 165 -442 3 c-348 2 -443 0 -446
-10z"/>
<path d="M4560 2864 c-39 -12 -146 -33 -257 -50 -26 -4 -33 -10 -33 -28 0 -20
6 -24 47 -29 86 -9 83 3 83 -406 0 -287 -3 -361 -14 -376 -9 -12 -31 -21 -62
-24 -47 -6 -49 -7 -52 -40 -3 -32 -2 -33 23 -27 23 6 369 8 434 3 19 -2 24 3
26 23 3 31 -10 40 -57 40 -25 0 -45 7 -58 20 -19 19 -20 33 -20 465 0 245 -3
445 -7 444 -5 -1 -28 -7 -53 -15z"/>
<path d="M5039 2846 c-25 -7 -82 -19 -127 -26 -79 -12 -82 -13 -82 -39 0 -25
3 -27 48 -29 85 -4 82 9 82 -403 0 -408 4 -390 -84 -403 -42 -7 -46 -10 -46
-34 l0 -28 93 9 c81 7 285 2 338 -8 15 -3 19 2 19 24 0 25 -5 30 -35 35 -65
13 -66 17 -63 367 3 291 4 317 23 353 27 53 60 75 120 82 62 7 111 -16 140
-66 19 -33 20 -55 23 -350 2 -198 -1 -325 -7 -342 -7 -19 -22 -30 -51 -39 -35
-11 -40 -16 -40 -41 0 -26 3 -28 23 -21 12 4 113 7 225 7 l202 -1 0 23 c0 19
-7 24 -45 30 -25 3 -56 14 -68 24 -22 18 -22 22 -27 352 -5 324 -6 334 -29
385 -29 65 -85 118 -143 135 -24 6 -77 12 -118 12 -96 0 -165 -29 -219 -91
l-39 -44 -6 28 c-3 15 -8 47 -11 71 -8 47 -15 50 -96 28z"/>
<path d="M6175 2850 c-115 -24 -209 -103 -236 -197 -21 -74 -16 -178 11 -241
21 -48 107 -142 131 -142 21 0 6 -19 -23 -29 -131 -46 -171 -192 -73 -269 31
-25 31 -27 -4 -42 -87 -36 -130 -145 -100 -255 15 -55 91 -127 162 -153 85
-32 212 -46 306 -33 172 23 273 80 329 186 36 67 38 179 5 241 -55 103 -132
134 -403 158 -174 16 -186 19 -196 49 -14 43 57 75 231 102 143 22 235 86 274
190 25 67 28 173 6 235 -8 23 -15 45 -15 49 0 3 34 5 75 3 l75 -4 0 51 0 51
-119 0 c-106 0 -125 3 -174 25 -62 29 -190 41 -262 25z m157 -71 c50 -26 80
-114 79 -237 0 -149 -42 -232 -126 -248 -50 -9 -109 27 -137 85 -19 39 -23 63
-23 151 0 58 6 124 13 147 30 99 113 143 194 102z m-29 -899 c104 -14 180 -48
201 -89 37 -71 6 -147 -78 -190 -39 -20 -67 -26 -144 -29 -113 -5 -183 8 -246
48 -81 52 -106 122 -66 187 23 38 48 53 115 68 71 16 124 17 218 5z"/>
<path d="M7762 2838 c-105 -42 -191 -150 -227 -283 -23 -86 -23 -301 0 -381
39 -136 107 -223 214 -272 74 -34 223 -43 299 -18 110 37 194 134 218 251 1 6
5 22 9 38 7 26 6 27 -34 27 -40 0 -40 0 -56 -53 -36 -125 -118 -197 -222 -197
-139 1 -217 110 -230 323 l-6 97 278 0 277 0 -6 73 c-18 201 -78 316 -197 382
-49 27 -64 30 -159 32 -88 2 -113 -1 -158 -19z m216 -71 c13 -12 30 -34 37
-48 21 -40 45 -154 45 -215 l0 -54 -166 0 -166 0 7 56 c16 132 37 200 77 248
48 59 112 64 166 13z"/>
<path d="M2240 1625 l0 -275 275 0 275 0 0 275 0 275 -275 0 -275 0 0 -275z"/>
</g>
</svg>
