<svg id="Layer_1" xmlns="http://www.w3.org/2000/svg" width="152" height="135.9" viewBox="0 0 152 135.9"><style>.st0,.st1{fill:#b4b4b4}.st1{stroke:#010101;stroke-width:5;stroke-miterlimit:10}</style><path class="st0" d="M42.8 30.2c0 1.7-.3 3.2-.9 4.4s-1.4 2.2-2.5 2.9-2.4 1-3.8 1-2.7-.3-3.8-1-2-1.7-2.6-2.9-.9-2.7-.9-4.4v-.8c0-1.7.3-3.2.9-4.4s1.5-2.3 2.6-2.9 2.4-1 3.8-1 2.7.3 3.8 1 2 1.7 2.6 2.9.9 2.8.9 4.4v.8zm-3.5-.8c0-1.8-.3-3.1-1-4.1s-1.6-1.4-2.7-1.4c-1.2 0-2.1.5-2.7 1.4s-1 2.3-1 4v.8c0 1.7.3 3.1 1 4.1s1.6 1.4 2.8 1.4c1.2 0 2.1-.5 2.7-1.4s1-2.3 1-4v-.8zM56.6 32.1c0 2-.4 3.5-1.3 4.7s-2.1 1.8-3.6 1.8c-1.3 0-2.3-.4-3.1-1.3v6h-3.4V25.6h3.1l.1 1.2c.8-1 1.9-1.5 3.2-1.5 1.6 0 2.8.6 3.6 1.7s1.3 2.8 1.3 4.8v.3zm-3.4-.3c0-1.2-.2-2.1-.6-2.7s-1-1-1.8-1c-1.1 0-1.8.4-2.2 1.2v5.2c.4.8 1.2 1.3 2.2 1.3 1.6 0 2.4-1.3 2.4-4zM64.5 38.6c-1.9 0-3.4-.6-4.5-1.7s-1.8-2.7-1.8-4.6V32c0-1.3.2-2.4.7-3.4s1.2-1.8 2.1-2.3 1.9-.8 3.1-.8c1.7 0 3.1.5 4.1 1.6s1.5 2.6 1.5 4.7v1.4h-8.1c.1.8.4 1.5 1 2s1.2.8 2.1.8c1.3 0 2.3-.5 3.1-1.4l1.7 1.9c-.5.5-1.2 1-2.1 1.5s-1.8.6-2.9.6zm-.4-10.5c-.7 0-1.2.2-1.6.7-.4.5-.7 1.1-.8 2h4.7v-.3c0-.8-.2-1.3-.6-1.7-.4-.5-1-.7-1.7-.7zM78.8 28.8c-.5-.1-.9-.1-1.2-.1-1.3 0-2.1.4-2.5 1.3v8.3h-3.4V25.6h3.2l.1 1.5c.7-1.2 1.6-1.7 2.8-1.7.4 0 .7.1 1.1.2l-.1 3.2zM87.4 38.3c-.2-.3-.3-.7-.3-1.1-.8.9-1.9 1.4-3.2 1.4-1.2 0-2.3-.4-3.1-1.1s-1.2-1.6-1.2-2.7c0-1.3.5-2.4 1.5-3.1s2.4-1.1 4.3-1.1H87v-.7c0-.6-.2-1.1-.5-1.4s-.8-.5-1.4-.5c-.6 0-1 .1-1.3.4s-.5.6-.5 1.1h-3.4c0-.7.2-1.4.7-2s1.1-1.1 1.9-1.5 1.8-.5 2.8-.5c1.6 0 2.8.4 3.7 1.2s1.4 1.9 1.4 3.3v5.5c0 1.2.2 2.1.5 2.7v.2h-3.5zM84.6 36c.5 0 1-.1 1.4-.3s.7-.5.9-.9v-2.2h-1.3c-1.7 0-2.6.6-2.7 1.8v.2c0 .4.1.8.4 1s.8.4 1.3.4zM97 22.5v3.1h2.2v2.5H97v6.3c0 .5.1.8.3 1s.5.3 1 .3c.4 0 .7 0 1-.1v2.6c-.7.2-1.3.3-2.1.3-2.4 0-3.6-1.2-3.6-3.6v-6.8h-1.9v-2.5h1.9v-3.1H97zM100.2 31.9c0-1.3.2-2.4.7-3.4s1.2-1.7 2.1-2.3 2-.8 3.2-.8c1.7 0 3.1.5 4.2 1.6s1.7 2.5 1.8 4.3v.9c0 1.9-.5 3.5-1.6 4.7s-2.5 1.8-4.4 1.8-3.3-.6-4.4-1.8-1.6-2.8-1.6-4.8v-.2zm3.3.2c0 1.2.2 2.1.7 2.8s1.1 1 1.9 1c.8 0 1.5-.3 1.9-.9s.7-1.6.7-3c0-1.2-.2-2.1-.7-2.7s-1.1-1-1.9-1c-.8 0-1.5.3-1.9 1s-.7 1.4-.7 2.8zM121.4 28.8c-.5-.1-.9-.1-1.2-.1-1.3 0-2.1.4-2.5 1.3v8.3h-3.4V25.6h3.2l.1 1.5c.7-1.2 1.6-1.7 2.8-1.7.4 0 .7.1 1.1.2l-.1 3.2zM52.6 62.5h7.5v2.8h-11v-17h3.5v14.2zM61.4 58.9c0-1.3.2-2.4.7-3.4s1.2-1.7 2.1-2.3c.9-.5 2-.8 3.2-.8 1.7 0 3.1.5 4.2 1.6s1.7 2.5 1.8 4.3v.9c0 1.9-.5 3.5-1.6 4.7s-2.5 1.8-4.4 1.8-3.3-.7-4.4-1.9c-1.1-1.2-1.6-2.8-1.6-4.8v-.1zm3.3.2c0 1.2.2 2.1.7 2.8s1.1 1 1.9 1c.8 0 1.5-.3 1.9-.9s.7-1.6.7-3c0-1.2-.2-2.1-.7-2.7s-1.1-1-1.9-1c-.8 0-1.5.3-1.9 1s-.7 1.4-.7 2.8zM75 58.9c0-1.9.5-3.5 1.4-4.7s2.2-1.8 3.7-1.8c1.4 0 2.5.5 3.2 1.4l.1-1.2h3.1v12.3c0 1.1-.3 2.1-.8 2.9s-1.2 1.4-2.1 1.9-2 .6-3.2.6c-.9 0-1.8-.2-2.7-.6s-1.6-.8-2-1.4l1.5-2.1c.8.9 1.9 1.4 3.1 1.4.9 0 1.6-.2 2.1-.7s.8-1.2.8-2v-.7c-.8.9-1.8 1.3-3.1 1.3-1.5 0-2.8-.6-3.7-1.8S75 61 75 59v-.1zm3.3.2c0 1.2.2 2.1.7 2.7s1.1 1 1.9 1c1 0 1.8-.4 2.2-1.2v-5.4c-.5-.8-1.2-1.2-2.2-1.2-.8 0-1.5.3-1.9 1-.4.8-.7 1.8-.7 3.1zM88.6 58.9c0-1.3.2-2.4.7-3.4s1.2-1.7 2.1-2.3 2-.8 3.2-.8c1.7 0 3.1.5 4.2 1.6s1.7 2.5 1.8 4.3v.9c0 1.9-.5 3.5-1.6 4.7s-2.5 1.8-4.4 1.8-3.3-.6-4.4-1.8-1.6-2.9-1.6-4.9v-.1zm3.4.2c0 1.2.2 2.1.7 2.8s1.1 1 1.9 1c.8 0 1.5-.3 1.9-.9s.7-1.6.7-3c0-1.2-.2-2.1-.7-2.7s-1.1-1-1.9-1c-.8 0-1.5.3-1.9 1s-.7 1.4-.7 2.8zM61.9 90.2c-.6.8-1.5 1.3-2.7 1.8s-2.4.6-3.8.6c-1.5 0-2.8-.3-3.9-1s-2-1.6-2.6-2.8-.9-2.7-.9-4.3v-1.2c0-1.7.3-3.2.9-4.4s1.4-2.2 2.5-2.9 2.3-1 3.8-1c2 0 3.6.5 4.7 1.4s1.8 2.4 2 4.2h-3.4c-.2-1-.5-1.7-1-2.1s-1.3-.7-2.2-.7c-1.2 0-2.1.4-2.7 1.3s-.9 2.2-.9 4v1.1c0 1.8.3 3.1 1 4.1s1.7 1.4 3 1.4 2.3-.3 2.8-.8V86h-3.2v-2.6H62v6.8zM64 85.9c0-1.3.2-2.4.7-3.4s1.2-1.7 2.1-2.3 2-.8 3.2-.8c1.7 0 3.1.5 4.2 1.6s1.7 2.5 1.8 4.3v.9c0 1.9-.5 3.5-1.6 4.7s-2.5 1.8-4.4 1.8-3.3-.6-4.4-1.8S64 88 64 86v-.1zm3.4.2c0 1.2.2 2.1.7 2.8s1.1 1 1.9 1c.8 0 1.5-.3 1.9-.9s.7-1.6.7-3c0-1.2-.2-2.1-.7-2.7s-1.1-1-1.9-1c-.8 0-1.5.3-1.9 1s-.7 1.4-.7 2.8zM83.9 92.6c-1.9 0-3.4-.6-4.5-1.7s-1.8-2.7-1.8-4.6V86c0-1.3.2-2.4.7-3.4s1.2-1.8 2.1-2.3 1.9-.8 3.1-.8c1.7 0 3.1.5 4.1 1.6s1.5 2.6 1.5 4.7v1.4H81c.1.8.4 1.5 1 2s1.2.8 2.1.8c1.3 0 2.3-.5 3.1-1.4l1.7 1.9c-.5.7-1.2 1.3-2.1 1.7s-1.8.4-2.9.4zm-.3-10.5c-.7 0-1.2.2-1.6.7-.4.5-.7 1.1-.8 2h4.7v-.3c0-.8-.2-1.3-.6-1.7-.5-.5-1-.7-1.7-.7zM97.9 88.8c0-.4-.2-.7-.6-1s-1.1-.5-2-.6c-3-.6-4.5-1.9-4.5-3.8 0-1.1.5-2.1 1.4-2.8s2.2-1.1 3.7-1.1c1.6 0 2.9.4 3.9 1.1s1.4 1.7 1.4 3h-3.4c0-.5-.2-.9-.5-1.2s-.8-.5-1.5-.5c-.6 0-1 .1-1.3.4s-.5.6-.5 1 .2.7.5.9 1 .4 1.8.6 1.6.4 2.1.6c1.8.7 2.7 1.8 2.7 3.4 0 1.2-.5 2.1-1.5 2.8s-2.3 1.1-3.8 1.1c-1.1 0-2-.2-2.8-.6s-1.5-.9-1.9-1.6-.7-1.4-.7-2.1h3.2c0 .6.3 1.1.7 1.4s1 .5 1.7.5c.6 0 1.1-.1 1.5-.4s.4-.7.4-1.1zM64.2 119.3h-3.5V112h-6.9v7.3h-3.5v-17.1h3.5v6.9h6.9v-6.9h3.5v17.1zM72.9 119.6c-1.9 0-3.4-.6-4.5-1.7s-1.8-2.7-1.8-4.6v-.3c0-1.3.2-2.4.7-3.4s1.2-1.8 2.1-2.3 1.9-.8 3.1-.8c1.7 0 3.1.5 4.1 1.6s1.5 2.6 1.5 4.7v1.4H70c.1.8.4 1.5 1 2s1.2.8 2.1.8c1.3 0 2.3-.5 3.1-1.4l1.7 1.9c-.5.7-1.2 1.3-2.1 1.7s-1.9.4-2.9.4zm-.4-10.5c-.7 0-1.2.2-1.6.7-.4.5-.7 1.1-.8 2h4.7v-.3c0-.8-.2-1.3-.6-1.7-.4-.5-1-.7-1.7-.7zM87.1 109.8c-.5-.1-.9-.1-1.2-.1-1.3 0-2.1.4-2.5 1.3v8.3H80v-12.7h3.2l.1 1.5c.7-1.2 1.6-1.7 2.8-1.7.4 0 .7.1 1.1.2l-.1 3.2zM94.4 119.6c-1.9 0-3.4-.6-4.5-1.7s-1.8-2.7-1.8-4.6v-.3c0-1.3.2-2.4.7-3.4s1.2-1.8 2.1-2.3 1.9-.8 3.1-.8c1.7 0 3.1.5 4.1 1.6s1.5 2.6 1.5 4.7v1.4h-8.1c.1.8.4 1.5 1 2s1.2.8 2.1.8c1.3 0 2.3-.5 3.1-1.4l1.7 1.9c-.5.7-1.2 1.3-2.1 1.7s-1.9.4-2.9.4zm-.4-10.5c-.7 0-1.2.2-1.6.7-.4.5-.7 1.1-.8 2h4.7v-.3c0-.8-.2-1.3-.6-1.7-.4-.5-1-.7-1.7-.7z"/><g><path class="st0" d="M31.5 135.9H0V0h31.5v5H5v125.9h26.5z"/></g><g><path class="st0" d="M152 135.9h-31.5v-5H147V5h-26.5V0H152z"/></g></svg>